<?xml version="1.0" encoding="utf-8"?>
<!-- Generator: Adobe Illustrator 27.3.0, SVG Export Plug-In . SVG Version: 6.00 Build 0)  -->

<svg viewBox="0 0 300 300">
	<style type="text/css">
		.st0{fill:#FDD837;}
		.st1{fill:#8BC249;}
		.st2{fill:#4A8BC3;}
		.st3{fill:#EC417A;}
	</style>
	<ellipse transform="matrix(0.9732 -0.2298 0.2298 0.9732 -46.7034 30.4754)" class="st0" cx="107.5" cy="215.8" rx="3.9" ry="3.9"/>
	<path class="st0" d="M0,154.9V300h145.1V154.9H0z M112.3,235.2h-8.7v6.3l15,37.5c1.6,4-0.3,8.5-4.3,10.1c-4,1.6-8.5-0.3-10.1-4.3
		l-9.6-23.9l-12,13.3h5.4c4.3,0,7.8,3.5,7.8,7.8c0,4.3-3.5,7.8-7.8,7.8H68.7H57c-6.9,0-12.8-4.5-14.8-10.7c-2.5,3-6.3,4.9-10.5,4.9
		c-7.5,0-13.6-6.1-13.6-13.6s6.1-13.6,13.6-13.6c4.2,0,8,1.9,10.5,5c3.6-19.1,18.8-34.2,38.1-37.4v-12c0-2.6,0.7-5.1,1.8-7.3
		c-8.3-8.9-12.2-21.1-10.5-33.2l0.2-1.2c0.4-3,3-5.2,6-5.2c1.6,0,3.1,0.6,4.3,1.8l0.8,0.8c7.7,7.7,11.6,18.2,11,28.8
		c0.8-0.1,1.5-0.2,2.3-0.2v0c1.2,0,2.3,0.1,3.5,0.2c0.3-5.8-0.6-11.6-2.6-17c1.8-4.3,4.5-8.3,7.9-11.7l1.1-1.1
		c0.9-0.9,2.1-1.4,3.4-1.4c2.2,0,4.2,1.6,4.7,3.7l0.2,1.1c2.4,10.3,0.4,21-5.1,29.7c1.3,0.8,2.6,1.6,3.8,2.6l8.5,6.8
		c3.4,2.8,5.4,6.9,5.4,11.3C127,228.7,120.4,235.2,112.3,235.2z"/>
	<path class="st1" d="M154.9,0v145.1H300V0H154.9z M171,62c0-21.4,17.4-38.8,38.8-38.8s38.8,17.4,38.8,38.8V71c0,4.7-3.8,8.6-8.6,8.6
		h-60.5c-4.7,0-8.5-3.8-8.5-8.6V62z M290.9,65.5c0,7.8-6.3,14.1-14.1,14.1h-7.1c-0.4,0-0.9,0-1.3-0.1c-3.6,11.7-14.2,20.4-26.9,21.2
		v12.4c0,4.9-3.9,8.8-8.8,8.8h-10.6c-4.9,0-8.8-3.9-8.8-8.8v-12.3h-7.1v12.3c0,4.9-3.9,8.8-8.8,8.8h-10.6c-4.9,0-8.8-3.9-8.8-8.8
		v-12.3H171c-3.9,0-7.1-3.2-7.1-7.1c0-3.9,3.2-7.1,7.1-7.1h68.8c8.8,0,15.9-7.1,15.9-15.9V54.9c0-7.8,6.3-14.1,14.1-14.1
		c11.7,0,21.2,9.3,21.2,21.2V65.5z"/>
	<ellipse transform="matrix(0.9732 -0.2298 0.2298 0.9732 -6.9253 64.4488)" class="st1" cx="273.3" cy="62" rx="3.5" ry="3.5"/>
	<ellipse transform="matrix(0.7071 -0.7071 0.7071 0.7071 -56.4573 241.0293)" class="st2" cx="262.7" cy="188.7" rx="3.5" ry="3.5"/>
	<path class="st2" d="M154.9,154.9V300H300V154.9H154.9z M255.7,276.8c0,3.9-3.2,7.1-7.1,7.1h-7.1c-3.9,0-7.1-3.2-7.1-7.1v-25.4
		c-5.3,2.7-11.3,4.2-17.6,4.2c-6.3,0-12.3-1.5-17.6-4.2v25.4c0,3.9-3.2,7.1-7.1,7.1h-7.1c-3.9,0-7.1-3.2-7.1-7.1v-50.7
		c-6.3-2.4-11.3-7.8-13-14.7l-0.8-3.4c-0.9-3.8,1.3-7.6,5.1-8.6c3.8-0.9,7.6,1.3,8.6,5.1l0.9,3.4c0.8,3.1,3.6,5.3,6.8,5.3h6.6h3.5
		h35.2l24.7,14.1V276.8z M290.9,195.7c0,9.7-7.9,17.6-17.6,17.6h-7.1h-3.5H258l-1.1,6.7L232.2,206l5.1-30.6c0.4-2.5,2.6-4.4,5.2-4.4
		c1.7,0,3.2,0.8,4.2,2.1l3.7,5h11.5c2.8,0,5.5,1.1,7.5,3.1l4,3.9h12.3c2.9,0,5.3,2.4,5.3,5.3V195.7z"/>
	<g>
		<path class="st3" d="M44.7,74.5l9.1,4.6c1.3,0.7,2.9-0.3,2.9-1.8V64.4C50.5,68.3,46.2,72.8,44.7,74.5z"/>
		<path class="st3" d="M104.3,36.8c-2.2,0-4,1.8-4,4c0,2.2,1.8,4,4,4c2.2,0,4-1.8,4-4C108.2,38.6,106.5,36.8,104.3,36.8z"/>
		<path class="st3" d="M69.9,69.9c1.1,1.1,3,0.5,3.3-1l2.2-11c-5,0.2-9.7,1.7-13.9,3.6L69.9,69.9z"/>
		<path class="st3" d="M0,0v145.1h145.1V0H0z M120.2,72.5v7.9v47.6c0,4.4-3.5,7.9-7.9,7.9c-4.4,0-7.9-3.5-7.9-7.9V93.2l-33.7,27h13.9
			c4.4,0,7.9,3.5,7.9,7.9c0,4.4-3.5,7.9-7.9,7.9H48.7c-13.1,0-23.8-10.7-23.8-23.8V56.8c0-4-3-7.4-6.9-7.9l-2-0.2
			c-4.4-0.5-7.4-4.5-6.9-8.9c0.5-4.4,4.5-7.4,8.9-6.9l2,0.2c11.9,1.5,20.9,11.6,20.9,23.6v15.7v5.4c0.8-1.2,1.6-2.3,2.5-3.4
			c0,0,0,0,0,0c0,0,0,0,0-0.1c0.1-0.2,0.2-0.3,0.4-0.5l0,0c1.4-1.6,6.1-6.6,12.9-10.8V63c1-0.6,1.9-1.1,2.9-1.5
			c4.7-2.5,10.1-4.3,16-4.6c0,0,0,0,0,0l0,0c1.6-0.1,3.2-0.2,4.8-0.2h4.2c5.5,9.5,15.7,15.9,27.5,15.9c2.7,0,5.4-0.3,7.9-1V72.5z
			M136,12v5v23.8c0,4.3-1.1,8.3-3.1,11.8c-2.8,4.9-7.3,8.7-12.7,10.6c-2.5,0.9-5.2,1.4-7.9,1.4c-7,0-13.4-3.1-17.8-7.9
			c-0.9-1-1.7-2.1-2.5-3.3c-2.3-3.7-3.6-8-3.6-12.6V17v-5v-0.3c0-1.5,1.2-2.6,2.6-2.7h0c0.8,0,1.6,0.4,2.1,1v0l3.2,4.2l6.7,9l1.2,1.6
			h15.9l1.2-1.6l6.7-9l3.2-4.2v0c0.5-0.6,1.3-1,2.1-1h0c1.5,0,2.6,1.2,2.6,2.7V12z"/>
		<path class="st3" d="M120.2,36.8c-2.2,0-4,1.8-4,4c0,2.2,1.8,4,4,4s4-1.8,4-4C124.1,38.6,122.3,36.8,120.2,36.8z"/>
	</g>
</svg>
